<svg width="130" height="133" viewBox="0 0 130 133" fill="none" xmlns="http://www.w3.org/2000/svg">
<g filter="url(#filter0_d_1_33)">
<circle cx="67" cy="63" r="50" fill="white"/>
<path d="M57.064 98.152C54.184 98.152 51.752 96.968 49.768 94.6C47.848 92.168 46.888 89.192 46.888 85.672C46.888 82.152 47.336 75.944 48.232 67.048C49.128 58.152 49.576 51.816 49.576 48.04C49.576 44.264 49.16 41.32 48.328 39.208L44.392 31.912L44.776 30.472C49.96 29.384 56.392 28.84 64.072 28.84C64.712 31.272 65.032 35.016 65.032 40.072C65.032 45.128 64.392 52.488 63.112 62.152C61.896 71.752 61.288 78.152 61.288 81.352C61.288 84.488 62.28 86.056 64.264 86.056C66.248 86.056 68.776 84.36 71.848 80.968C74.984 77.576 77.96 73.128 80.776 67.624C83.592 62.056 85.32 56.712 85.96 51.592L75.784 45.64C76.296 40.776 77.48 36.904 79.336 34.024C81 31.464 82.376 29.832 83.464 29.128L84.136 28.648C88.04 28.648 90.984 29.672 92.968 31.72C95.016 33.768 96.04 36.2 96.04 39.016C96.04 45.992 93.96 54.152 89.8 63.496C85.64 72.84 80.456 80.968 74.248 87.88C68.04 94.728 62.312 98.152 57.064 98.152Z" fill="black"/>
<path fill-rule="evenodd" clip-rule="evenodd" d="M116.681 78.9617C122.259 76.5093 125.471 73.6247 125.492 70.5207C125.554 61.2975 97.4189 53.6301 62.6495 53.3951C36.1341 53.216 13.4178 57.4111 4.09926 63.5036C15.0959 58.6688 35.2885 55.5139 58.3568 55.6697C93.1261 55.9047 121.262 63.572 121.199 72.7953C121.185 74.9848 119.582 77.0652 116.681 78.9617Z" fill="#FF0000"/>
</g>
<defs>
<filter id="filter0_d_1_33" x="0.0992432" y="13" width="129.393" height="108" filterUnits="userSpaceOnUse" color-interpolation-filters="sRGB">
<feFlood flood-opacity="0" result="BackgroundImageFix"/>
<feColorMatrix in="SourceAlpha" type="matrix" values="0 0 0 0 0 0 0 0 0 0 0 0 0 0 0 0 0 0 127 0" result="hardAlpha"/>
<feOffset dy="4"/>
<feGaussianBlur stdDeviation="2"/>
<feComposite in2="hardAlpha" operator="out"/>
<feColorMatrix type="matrix" values="0 0 0 0 0 0 0 0 0 0 0 0 0 0 0 0 0 0 0.25 0"/>
<feBlend mode="normal" in2="BackgroundImageFix" result="effect1_dropShadow_1_33"/>
<feBlend mode="normal" in="SourceGraphic" in2="effect1_dropShadow_1_33" result="shape"/>
</filter>
</defs>
</svg>
