<svg width="35" height="28" viewBox="0 0 35 28" xmlns="http://www.w3.org/2000/svg">
  <g fill="none" fill-rule="evenodd">
    <path d="M19.271 0H2.558A2.558 2.558 0 0 0 0 2.558V13.57a2.558 2.558 0 0 0 2.558 2.558h.97a.17.17 0 0 1 .17.17v4.338a1.194 1.194 0 0 0 2.039.844l5.3-5.3a.17.17 0 0 1 .121-.05h8.117a2.558 2.558 0 0 0 2.558-2.558V2.558A2.558 2.558 0 0 0 19.27 0Zm1.535 13.57c0 .848-.687 1.535-1.535 1.535h-8.116a1.194 1.194 0 0 0-.844.341l-5.295 5.309a.17.17 0 0 1-.292-.121v-4.335c0-.66-.535-1.194-1.194-1.194h-.972a1.535 1.535 0 0 1-1.535-1.535V2.558c0-.848.687-1.535 1.535-1.535h16.713c.848 0 1.535.687 1.535 1.535V13.57Z" fill="#796E7C" fill-rule="nonzero"/>
    <path fill="#FFF" d="M11 5h24v18H11z"/>
    <path fill="#796E7C" d="M16 12h5v1h-5zm0 2h9v1h-9zm0 2h7v1h-7z"/>
    <path d="M14.562 6h16.713a2.558 2.558 0 0 1 2.558 2.558V19.57a2.558 2.558 0 0 1-2.558 2.558h-3.97a.17.17 0 0 0-.17.17v4.338a1.194 1.194 0 0 1-2.039.844l-5.3-5.3a.17.17 0 0 0-.121-.05h-5.117A2.558 2.558 0 0 1 12 19.572V8.558A2.558 2.558 0 0 1 14.563 6Zm-1.535 13.57c0 .848.687 1.535 1.535 1.535h5.116a1.194 1.194 0 0 1 .844.341l5.295 5.309a.17.17 0 0 0 .292-.121v-4.335c0-.66.535-1.194 1.194-1.194h3.972a1.535 1.535 0 0 0 1.535-1.535V8.558c0-.848-.687-1.535-1.535-1.535H14.562c-.848 0-1.535.687-1.535 1.535V19.57Z" fill="#796E7C" fill-rule="nonzero"/>
  </g>
</svg>
