<svg width="29" height="29" viewBox="0 0 29 29" xmlns="http://www.w3.org/2000/svg">
  <g fill="#796E7C">
    <path d="M14.437 20.183c-4.462 0-8.092-3.63-8.092-8.093V8.096c0-4.463 3.63-8.093 8.092-8.093 4.463 0 8.093 3.63 8.093 8.093v3.994c0 4.462-3.63 8.093-8.093 8.093Zm0-19.032a6.952 6.952 0 0 0-6.944 6.945v3.994a6.952 6.952 0 0 0 6.944 6.944 6.952 6.952 0 0 0 6.945-6.944V8.096a6.952 6.952 0 0 0-6.945-6.945Z"/>
    <path d="M25.363 28.716H3.394a3.397 3.397 0 0 1-3.393-3.394v-2.508c0-1.107.56-2.592 3.233-3.37l3.286-.91a.575.575 0 0 1 .306 1.107l-3.279.908c-2.398.699-2.398 1.878-2.398 2.265v2.508a2.248 2.248 0 0 0 2.245 2.246h21.968a2.248 2.248 0 0 0 2.245-2.246v-2.508c0-1.046-.808-1.808-2.403-2.267l-3.128-.874a.574.574 0 1 1 .31-1.106l3.13.875c2.678.77 3.24 2.26 3.24 3.372v2.508a3.397 3.397 0 0 1-3.393 3.394Z"/>
  </g>
</svg>
