<svg width="27" height="25" viewBox="0 0 27 25" xmlns="http://www.w3.org/2000/svg"><path d="M26.554 6.287a.827.827 0 0 1 .089.643l-3.394 11.98a.657.657 0 0 1-.255.333.697.697 0 0 1-.41.133H9.004a.661.661 0 0 1-.411-.144.707.707 0 0 1-.255-.366L4.412 2.45c-.103-.355-.214-.562-.332-.621a.68.68 0 0 0-.266-.09H.775a.664.664 0 0 1-.488-.199.664.664 0 0 1-.2-.488.69.69 0 0 1 .2-.51.664.664 0 0 1 .488-.2h3.039c.221 0 .547.093.976.278.428.185.754.662.975 1.43L6.92 5.977h19.058c.103 0 .207.03.31.089a.973.973 0 0 1 .267.221Zm-4.458 11.67 2.86-10.56H7.297l2.262 10.56h12.538Zm-1.397 2.838c-.488 0-.906.174-1.253.522a1.708 1.708 0 0 0-.521 1.253c0 .487.173.905.52 1.253.348.347.766.52 1.254.52s.905-.173 1.253-.52c.347-.348.521-.766.521-1.253a1.71 1.71 0 0 0-.521-1.253 1.708 1.708 0 0 0-1.253-.522Zm-10.387 0c-.488 0-.906.174-1.253.522a1.708 1.708 0 0 0-.522 1.253c0 .487.174.905.522 1.253.347.347.765.52 1.253.52a1.71 1.71 0 0 0 1.253-.52c.347-.348.52-.766.52-1.253 0-.488-.173-.906-.52-1.253a1.708 1.708 0 0 0-1.253-.522Z" fill="#8B8B8A" fill-rule="evenodd"/></svg>