<svg width="21" height="20" xmlns="http://www.w3.org/2000/svg">
    <path d="M19.883 18.926a.596.596 0 0 1 .176.44.596.596 0 0 1-.176.439.617.617 0 0 1-.45.195.617.617 0 0 1-.449-.195L12.93 13.71a7.912 7.912 0 0 1-2.344 1.406 7.598 7.598 0 0 1-2.774.508 7.607 7.607 0 0 1-3.046-.615 8.008 8.008 0 0 1-2.49-1.67 7.676 7.676 0 0 1-1.67-2.48A7.713 7.713 0 0 1 0 7.812c0-1.081.202-2.097.605-3.047.404-.95.96-1.778 1.67-2.48a8.008 8.008 0 0 1 2.49-1.67A7.607 7.607 0 0 1 7.814 0a7.56 7.56 0 0 1 3.027.615c.95.41 1.78.967 2.49 1.67.71.703 1.27 1.53 1.68 2.48.41.951.615 1.967.615 3.048a7.52 7.52 0 0 1-.488 2.705 8.11 8.11 0 0 1-1.328 2.294l6.074 6.114Zm-12.07-4.531c.898 0 1.748-.173 2.548-.518a6.556 6.556 0 0 0 2.09-1.416 6.788 6.788 0 0 0 1.406-2.09 6.351 6.351 0 0 0 .518-2.559c0-.911-.173-1.764-.518-2.558a6.788 6.788 0 0 0-1.406-2.09 6.556 6.556 0 0 0-2.09-1.416 6.372 6.372 0 0 0-2.549-.518 6.42 6.42 0 0 0-2.568.518c-.8.345-1.497.817-2.09 1.416a6.788 6.788 0 0 0-1.406 2.09 6.351 6.351 0 0 0-.518 2.559c0 .911.173 1.764.518 2.558.345.794.814 1.491 1.406 2.09a6.556 6.556 0 0 0 2.09 1.416 6.42 6.42 0 0 0 2.569.518Z" fill="#BCAFA4" fill-rule="evenodd"/>
</svg>
